<mxfile host="Electron" modified="2025-03-05T10:36:20.620Z" agent="Mozilla/5.0 (Windows NT 10.0; Win64; x64) AppleWebKit/537.36 (KHTML, like Gecko) draw.io/24.5.3 Chrome/124.0.6367.207 Electron/30.0.6 Safari/537.36" etag="_UyvClkJfqaQHZ2nzs6P" version="24.5.3" type="device">
  <diagram name="Seite-1" id="wbKzrDslZjSC3c9pPJzk">
    <mxGraphModel dx="2074" dy="1244" grid="1" gridSize="10" guides="1" tooltips="1" connect="1" arrows="1" fold="1" page="1" pageScale="1" pageWidth="827" pageHeight="1169" math="0" shadow="0">
      <root>
        <mxCell id="0" />
        <mxCell id="1" parent="0" />
        <mxCell id="jeDcAwQA-8IsZO7BGQtT-1" value="Prio. B&lt;div&gt;&lt;i&gt;&quot;Terminieren, bald selber machen&quot;&lt;/i&gt;&lt;/div&gt;" style="whiteSpace=wrap;html=1;aspect=fixed;fontSize=20;fillColor=#e1d5e7;strokeColor=#9673a6;" parent="1" vertex="1">
          <mxGeometry x="230" y="390" width="160" height="160" as="geometry" />
        </mxCell>
        <mxCell id="jeDcAwQA-8IsZO7BGQtT-2" value="Prio. D&lt;br&gt;&lt;i&gt;&quot;Papierkorb&quot;&lt;/i&gt;" style="whiteSpace=wrap;html=1;aspect=fixed;fontSize=20;fillColor=#f5f5f5;strokeColor=#666666;fontColor=#333333;" parent="1" vertex="1">
          <mxGeometry x="230" y="570" width="160" height="160" as="geometry" />
        </mxCell>
        <mxCell id="jeDcAwQA-8IsZO7BGQtT-3" value="Prio. A&lt;br&gt;&lt;i&gt;&quot;Sofort selber machen&quot;&lt;/i&gt;" style="whiteSpace=wrap;html=1;aspect=fixed;fontSize=20;fillColor=#f8cecc;strokeColor=#b85450;strokeWidth=5;" parent="1" vertex="1">
          <mxGeometry x="410" y="390" width="160" height="160" as="geometry" />
        </mxCell>
        <mxCell id="jeDcAwQA-8IsZO7BGQtT-4" value="Prio. C&lt;br&gt;&lt;i&gt;&quot;Delegieren&quot;&lt;/i&gt;" style="whiteSpace=wrap;html=1;aspect=fixed;fontSize=20;fillColor=#dae8fc;strokeColor=#6c8ebf;" parent="1" vertex="1">
          <mxGeometry x="410" y="570" width="160" height="160" as="geometry" />
        </mxCell>
        <mxCell id="jeDcAwQA-8IsZO7BGQtT-5" value="Dringlichkeit" style="text;html=1;align=center;verticalAlign=middle;whiteSpace=wrap;rounded=0;fontSize=20;fontStyle=0" parent="1" vertex="1">
          <mxGeometry x="320" y="770" width="160" height="30" as="geometry" />
        </mxCell>
        <mxCell id="jeDcAwQA-8IsZO7BGQtT-6" value="Wichtigkeit" style="text;html=1;align=center;verticalAlign=middle;whiteSpace=wrap;rounded=0;fontSize=20;" parent="1" vertex="1">
          <mxGeometry x="40" y="545" width="160" height="30" as="geometry" />
        </mxCell>
        <mxCell id="fwXTcQ87zbBSOZBN-Jjj-1" value="" style="endArrow=classic;html=1;rounded=0;strokeWidth=2;" edge="1" parent="1">
          <mxGeometry width="50" height="50" relative="1" as="geometry">
            <mxPoint x="200" y="760" as="sourcePoint" />
            <mxPoint x="600" y="760" as="targetPoint" />
          </mxGeometry>
        </mxCell>
        <mxCell id="fwXTcQ87zbBSOZBN-Jjj-2" value="" style="endArrow=classic;html=1;rounded=0;strokeWidth=2;" edge="1" parent="1">
          <mxGeometry width="50" height="50" relative="1" as="geometry">
            <mxPoint x="200" y="760" as="sourcePoint" />
            <mxPoint x="200" y="360" as="targetPoint" />
          </mxGeometry>
        </mxCell>
      </root>
    </mxGraphModel>
  </diagram>
</mxfile>
